<svg width="50" height="47" viewBox="0 0 50 47" fill="none" xmlns="http://www.w3.org/2000/svg">
<path fill-rule="evenodd" clip-rule="evenodd" d="M36.0089 18.301L35.9474 18.2979C34.0299 18.267 32.4442 18.5515 30.7387 19.476V19.4729C28.5662 20.5676 25.441 24.1391 23.0779 28.125C20.4536 32.0305 15.2879 42.1081 10.8168 42.7729L9.81808 42.776C6.31492 42.776 3.47551 39.9188 3.47551 36.3937C3.47551 33.0077 10.0793 23.1867 11.9323 19.9553L19.1383 7.39777L19.1998 7.2648C20.2569 5.00129 22.5124 3.55721 24.9954 3.55721C27.4783 3.55721 29.737 5.00129 30.791 7.2648L30.8524 7.39777L36.1287 16.5941C37.7942 16.6621 39.3952 17.0857 40.8365 17.8124L33.9346 5.78053C32.309 2.29867 28.8304 0.0629883 24.9954 0.0629883C21.1573 0.0629883 17.6818 2.29867 16.0562 5.78053L8.92692 18.2082C6.47164 22.4817 0 31.7615 0 36.3937C0 38.954 0.971053 41.2887 2.55977 43.0451H2.53519C4.37896 45.1076 7.03091 46.3414 9.87954 46.3414C17.1348 46.3414 21.7012 36.6318 25.7452 31.0286L31.1966 40.528C32.8222 44.0098 36.2977 46.2424 40.1389 46.2424C42.7355 46.2424 45.1693 45.2189 46.9731 43.478V43.5274C48.8384 41.7278 50 39.1983 50 36.3937C50 33.0324 46.7058 27.5406 44.8897 24.504C43.7465 22.5157 43.2917 21.4582 41.239 20.0296L41.2083 20.0079L41.1745 19.9863L41.113 19.943H41.1099L41.0977 19.9337L41.0454 19.8966C39.724 19.0339 37.5914 18.2515 36.0089 18.301ZM46.0635 38.7932C46.3616 38.0542 46.5276 37.244 46.5276 36.3937C46.5276 34.0405 43.3747 28.8517 41.9519 26.3717C40.0959 23.2517 38.6977 21.4087 34.5185 21.8509L34.4939 21.854C30.6373 22.4198 27.7395 26.5294 29.3774 30.3576L31.1782 33.4993L31.5162 34.0497L31.4793 34.0281L34.2788 38.9076L34.3402 39.0406C35.3973 41.3041 37.6529 42.7482 40.1358 42.7482C42.6218 42.7482 44.8774 41.3041 45.9314 39.0406L45.9929 38.9076L46.0635 38.7932Z" fill="#529AFD"/>
</svg>
